HIERARCHY
ROOT Hips
{
	OFFSET 0.000000 0.000000 0.000000
	CHANNELS 6 Xposition Yposition Zposition Zrotation Yrotation Xrotation 
	JOINT LowerBack
	{
		OFFSET 0.000000 0.000000 0.000000
		CHANNELS 3 Zrotation Yrotation Xrotation
		JOINT Spine
		{
			OFFSET 0.028270 2.035590 -0.193380
			CHANNELS 3 Zrotation Yrotation Xrotation
			JOINT Spine1
			{
				OFFSET 0.056720 2.048850 -0.042750
				CHANNELS 3 Zrotation Yrotation Xrotation
				JOINT Neck
				{
					OFFSET 0.000000 0.000000 0.000000
					CHANNELS 3 Zrotation Yrotation Xrotation
					JOINT Neck1
					{
						OFFSET -0.054170 1.746240 0.172020
						CHANNELS 3 Zrotation Yrotation Xrotation
						JOINT Head
						{
							OFFSET 0.104070 1.761360 -0.123970
							CHANNELS 3 Zrotation Yrotation Xrotation
							End Site
							{
								OFFSET 0.000000 0.000000 0.000000
							}
						}
					}
				}
				JOINT LeftShoulder
				{
					OFFSET 0.000000 0.000000 0.000000
					CHANNELS 3 Zrotation Yrotation Xrotation
					JOINT LeftArm
					{
						OFFSET 3.362410 1.200890 -0.311210
						CHANNELS 3 Zrotation Yrotation Xrotation
						JOINT LeftForeArm
						{
							OFFSET 4.983000 -0.000000 -0.000000
							CHANNELS 3 Zrotation Yrotation Xrotation
							JOINT LeftHand
							{
								OFFSET 3.483560 -0.000000 -0.000000
								CHANNELS 3 Zrotation Yrotation Xrotation
								JOINT LeftFingerBase
								{
									OFFSET 0.000000 0.000000 0.000000
									CHANNELS 3 Zrotation Yrotation Xrotation
									JOINT LeftHandIndex1
									{
										OFFSET 0.715260 -0.000000 -0.000000
										CHANNELS 3 Zrotation Yrotation Xrotation
										End Site
										{
											OFFSET 0.000000 0.000000 0.000000
										}
									}
								}
								JOINT LThumb
								{
									OFFSET 0.000000 0.000000 0.000000
									CHANNELS 3 Zrotation Yrotation Xrotation
									End Site
									{
										OFFSET 0.000000 0.000000 0.000000
									}
								}
							}
						}
					}
				}
				JOINT RightShoulder
				{
					OFFSET 0.000000 0.000000 0.000000
					CHANNELS 3 Zrotation Yrotation Xrotation
					JOINT RightArm
					{
						OFFSET -3.136600 1.374050 -0.404650
						CHANNELS 3 Zrotation Yrotation Xrotation
						JOINT RightForeArm
						{
							OFFSET -5.241900 -0.000000 -0.000000
							CHANNELS 3 Zrotation Yrotation Xrotation
							JOINT RightHand
							{
								OFFSET -3.444170 -0.000000 -0.000000
								CHANNELS 3 Zrotation Yrotation Xrotation
								JOINT RightFingerBase
								{
									OFFSET 0.000000 0.000000 0.000000
									CHANNELS 3 Zrotation Yrotation Xrotation
									JOINT RightHandIndex1
									{
										OFFSET -0.622530 -0.000000 -0.000000
										CHANNELS 3 Zrotation Yrotation Xrotation
										End Site
										{
											OFFSET 0.000000 0.000000 0.000000
										}
									}
								}
								JOINT RThumb
								{
									OFFSET 0.000000 0.000000 0.000000
									CHANNELS 3 Zrotation Yrotation Xrotation
									End Site
									{
										OFFSET 0.000000 0.000000 0.000000
									}
								}
							}
						}
					}
				}
			}
		}
	}
}
}
MOTION
Frames: 10
Frame Time: 0.008333
-1.511899 16.813354 -2.252290 23.436205 84.771053 45.247542 -6.479992 -2.920925 -3.954704 -1.669344 -2.545961 -3.650953 -5.389852 -2.624295 -0.244975 16.533349 -11.574181 -7.303618 -1.682227 -0.127977 0.033050 0.000000 0.000000 0.000000 -2.119740 8.947291 0.748297 -74.356619 20.779628 2.404601 -0.192336 -89.589640 -0.061147 17.860337 2.962256 0.446879 -0.253468 0.172998 -0.000000 0.000000 0.000000 0.000000 0.000000 0.000000 0.000000 10.854690 -6.485229 0.421049 64.822734 19.978998 35.158316 178.766081 78.357170 -179.962501 3.484395 6.216102 0.206816 0.012963 -0.554456 -0.000000 0.000000 0.000000 0.000000 0.000000 0.000000 0.000000 
-1.320395 16.758658 -2.237191 24.571750 84.329006 46.415534 -6.521377 -3.020130 -3.950595 -1.684406 -2.640107 -3.655112 -5.481531 -2.716345 -0.283371 16.460677 -11.480805 -7.279204 -1.699073 -0.129338 0.038073 0.000000 0.000000 0.000000 -2.634786 8.923075 0.806990 -73.024717 19.380824 3.583785 -0.228278 -88.397260 -0.063467 18.718263 3.409731 0.544816 -0.264155 0.164641 -0.000000 0.000000 0.000000 0.000000 0.000000 0.000000 0.000000 10.742792 -6.456050 0.305591 65.278146 19.740483 34.432000 178.792288 78.262401 -179.964931 3.163158 6.300590 0.190225 0.015611 -0.560562 -0.000000 0.000000 0.000000 0.000000 0.000000 0.000000 0.000000 
-1.132779 16.717293 -2.217875 25.031802 83.747913 46.883121 -6.576532 -3.061449 -3.931926 -1.709493 -2.675094 -3.658356 -5.594807 -2.748664 -0.323900 16.352497 -11.380589 -7.237662 -1.725988 -0.131682 0.047237 0.000000 0.000000 0.000000 -3.120707 8.907952 0.867270 -71.605402 17.714710 4.917004 -0.266790 -87.074357 -0.065119 19.279436 3.840858 0.636829 -0.271281 0.157668 -0.000000 0.000000 0.000000 0.000000 0.000000 0.000000 0.000000 10.647568 -6.395357 0.177678 65.902205 19.352189 33.681251 178.846168 78.358914 -179.968380 2.741758 6.283040 0.164352 0.019898 -0.563108 -0.000000 0.000000 0.000000 0.000000 0.000000 0.000000 0.000000 
-0.948269 16.690059 -2.194337 24.822612 83.039139 46.649434 -6.639693 -3.047629 -3.900020 -1.742706 -2.654211 -3.659938 -5.726920 -2.724601 -0.363504 16.222224 -11.277623 -7.176728 -1.764656 -0.135185 0.061356 0.000000 0.000000 0.000000 -3.551340 8.886508 0.928121 -70.180946 15.851369 6.310983 -0.308689 -85.677170 -0.066092 19.506872 4.209284 0.709523 -0.274894 0.152807 0.000000 0.000000 0.000000 0.000000 0.000000 0.000000 0.000000 10.598148 -6.310856 0.043644 66.652568 18.848130 32.930952 178.923677 78.634479 -179.972861 2.214448 6.151717 0.129895 0.026084 -0.561827 -0.000000 0.000000 0.000000 0.000000 0.000000 0.000000 0.000000 
-0.765913 16.677016 -2.167385 23.941611 82.221154 45.707035 -6.683414 -2.981597 -3.858044 -1.777443 -2.582694 -3.660633 -5.872482 -2.649506 -0.402695 16.074358 -11.170431 -7.091815 -1.815885 -0.140010 0.082193 0.000000 0.000000 0.000000 -3.909149 8.837340 0.986855 -68.831891 13.886376 7.671376 -0.354112 -84.274383 -0.066370 19.393969 4.476378 0.752102 -0.275262 0.150492 0.000000 0.000000 0.000000 0.000000 0.000000 0.000000 0.000000 10.606606 -6.204818 -0.090474 67.481389 18.261697 32.203749 179.019231 79.070222 -179.978295 1.584874 5.903952 0.089051 0.034140 -0.556699 -0.000000 0.000000 0.000000 0.000000 0.000000 0.000000 0.000000 
-0.584817 16.677454 -2.137399 22.602359 81.315284 44.262059 -6.699294 -2.875043 -3.803676 -1.810611 -2.472859 -3.659298 -6.024783 -2.535625 -0.440249 15.915833 -11.063207 -6.981902 -1.880104 -0.146213 0.110313 0.000000 0.000000 0.000000 -4.162176 8.743851 1.039259 -67.630504 11.914814 8.923137 -0.402134 -82.929519 -0.065952 18.967787 4.617848 0.759371 -0.272806 0.150860 0.000000 0.000000 0.000000 0.000000 0.000000 0.000000 0.000000 10.687028 -6.089079 -0.219023 68.343115 17.635644 31.528963 179.126241 79.644513 -179.984515 0.863521 5.545873 0.045216 0.043983 -0.547995 -0.000000 0.000000 0.000000 0.000000 0.000000 0.000000 0.000000 
-0.404038 16.690201 -2.104972 20.978276 80.343764 42.485343 -6.674108 -2.741034 -3.736924 -1.837737 -2.338836 -3.655459 -6.175904 -2.397099 -0.475371 15.748397 -10.960230 -6.847543 -1.956931 -0.153765 0.145926 0.000000 0.000000 0.000000 -4.285437 8.593913 1.080013 -66.633329 10.030121 10.009234 -0.450298 -81.705148 -0.064869 18.283931 4.630425 0.733436 -0.268021 0.153721 0.000000 0.000000 0.000000 0.000000 0.000000 0.000000 0.000000 10.841836 -5.975891 -0.337351 69.194816 17.010769 30.937242 179.237617 80.331746 -179.991259 0.072439 5.092898 0.002485 0.055302 -0.536204 -0.000000 0.000000 0.000000 0.000000 0.000000 0.000000 0.000000 
-0.222687 16.713665 -2.070606 19.243140 79.331047 40.551932 -6.601185 -2.595305 -3.658619 -1.855506 -2.196896 -3.648941 -6.318615 -2.250264 -0.508156 15.571415 -10.865073 -6.690723 -2.045508 -0.162571 0.188780 0.000000 0.000000 0.000000 -4.258452 8.377764 1.104137 -65.876311 8.315829 10.892543 -0.494879 -80.658911 -0.063209 17.417306 4.531543 0.682300 -0.261418 0.158655 0.000000 0.000000 0.000000 0.000000 0.000000 0.000000 0.000000 11.065674 -5.877107 -0.442266 70.004309 16.417011 30.457595 179.346797 81.103127 -179.998173 -0.753421 4.569030 -0.034849 0.067490 -0.522016 0.000000 0.000000 0.000000 0.000000 0.000000 0.000000 0.000000 
-0.040011 16.746128 -2.034624 17.549208 78.303630 38.619420 -6.480199 -2.454876 -3.570524 -1.861724 -2.064054 -3.639003 -6.446810 -2.112176 -0.535835 15.383954 -10.785132 -6.518267 -2.144579 -0.172423 0.237144 0.000000 0.000000 0.000000 -4.071292 8.101930 1.107475 -65.370048 6.821938 11.565848 -0.531897 -79.834752 -0.061158 16.452932 4.357012 0.617762 -0.253611 0.165101 0.000000 0.000000 0.000000 0.000000 0.000000 0.000000 0.000000 11.351141 -5.808246 -0.532247 70.745829 15.882039 30.117719 179.448191 81.928530 179.995136 -1.572168 4.004662 -0.063391 0.079867 -0.506231 -0.000000 0.000000 0.000000 0.000000 0.000000 0.000000 0.000000 
0.144553 16.785823 -1.997321 15.988376 77.290255 36.790544 -6.309294 -2.334929 -3.478218 -1.854170 -1.955670 -3.626388 -6.556580 -1.998376 -0.558148 15.181523 -10.721760 -6.336008 -2.252599 -0.183110 0.289567 0.000000 0.000000 0.000000 -3.727794 7.771380 1.088233 -65.101703 5.582601 12.036122 -0.557687 -79.267877 -0.058945 15.473426 4.148836 0.551129 -0.245221 0.172498 0.000000 0.000000 0.000000 0.000000 0.000000 0.000000 0.000000 11.681704 -5.776536 -0.607423 71.406027 15.412853 29.932556 179.537925 82.775719 179.989096 -2.332027 3.435493 -0.081344 0.091423 -0.489742 -0.000000 0.000000 0.000000 0.000000 0.000000 0.000000 0.000000 
